<?xml version="1.0" standalone="no"?>
<svg xmlns="http://www.w3.org/2000/svg" viewBox="0 0 206.809 29" width="206.809" height="29"><g fill="#ff5576" color="#ff5576" transform="translate(0, 0) scale(0.6904762)"><svg width="42.0" height="42.0" x="0.0" y="0.0" viewBox="0 0 42 42"><path fill="currentColor" fill-rule="nonzero" d="M21 41.41L41.41.59H.59L21 41.41zm0-7.61l-11.5-23h15.4l-1.7 3.4H15l6 12 9.4-18.8H7.8L6.1 4h29.8L21 33.8z"></path></svg></g><line x1="41" y1="1" x2="41" y2="28" stroke="#0b0cac" stroke-linecap="round"></line><path fill="#0b0cac" fill-rule="nonzero" d="M12.53 8.81L12.53 8.81Q12.53 9.26 10.42 9.86L10.42 9.86Q10.61 12.36 10.61 14.11L10.61 14.11Q10.61 17.14 9.84 17.14L9.84 17.14Q9.43 17.14 9.19 16.63Q8.95 16.13 8.81 14.88L8.81 14.88Q8.64 12.58 8.45 10.37L8.45 10.37Q7.37 10.66 6.48 10.88Q5.59 11.11 3.79 11.62L3.79 11.62Q1.68 17.14 1.30 17.14Q0.91 17.14 0.47 16.67Q0.02 16.20 0.02 15.67L0.02 15.67Q0.02 15.43 1.39 12.26L1.39 12.26L1.22 12.26Q0.74 12.26 0.37 11.95Q0 11.64 0 11.17Q0 10.70 2.38 9.94L2.38 9.94Q2.76 9.07 3 8.38L3 8.38Q3.55 7.01 4.54 4.63Q5.52 2.26 5.78 1.60Q6.05 0.94 6.71 0.47Q7.37 0 7.99 0L7.99 0Q8.74 0 9.32 2.38Q9.91 4.75 10.27 8.26L10.27 8.26Q10.94 8.18 11.45 8.18L11.45 8.18Q12.53 8.18 12.53 8.81ZM4.68 9.31L4.68 9.31Q6.38 8.86 8.28 8.54L8.28 8.54Q7.85 4.44 7.44 2.38L7.44 2.38Q6.36 4.85 4.68 9.31ZM22.61 5.26L22.61 5.26Q23.02 5.26 23.40 5.56Q23.78 5.86 23.78 6.22L23.78 6.22Q23.78 6.86 22.04 10.70Q20.30 14.54 19.57 15.88Q18.84 17.21 18.29 17.21L18.29 17.21Q17.98 17.21 17.52 16.75Q17.06 16.30 16.85 15.77L16.85 15.77Q16.20 14.26 15.46 10.90Q14.71 7.54 14.71 5.98L14.71 5.98Q14.71 5.26 15.14 5.26L15.14 5.26Q15.67 5.26 16.22 5.70Q16.78 6.14 16.99 6.82L16.99 6.82Q17.06 7.20 17.18 8.74L17.18 8.74Q17.52 12.53 18.34 14.57L18.34 14.57Q18.98 13.18 19.99 10.62Q21 8.06 21.64 6.66Q22.27 5.26 22.61 5.26ZM27.53 1.85Q27.53 1.37 27.91 0.94Q28.30 0.50 28.69 0.50Q29.09 0.50 29.64 1.48Q30.19 2.45 30.19 3.10L30.19 3.10Q30.19 3.34 29.98 3.53Q29.76 3.72 29.52 3.72L29.52 3.72Q28.94 3.72 28.24 3.02Q27.53 2.33 27.53 1.85ZM27.41 5.26L27.41 5.26Q27.86 5.26 28.27 5.81Q28.68 6.36 28.68 6.89Q28.68 7.42 27.98 10.04Q27.29 12.67 26.23 15.94L26.23 15.94Q25.82 17.14 25.20 17.14L25.20 17.14Q24.86 17.14 24.62 16.86Q24.38 16.58 24.38 16.24Q24.38 15.89 24.56 15.13Q24.74 14.38 25.09 13.12Q25.44 11.86 25.64 11.06Q25.85 10.27 26.06 9.28Q26.28 8.28 26.41 7.67Q26.54 7.06 26.71 6.43L26.71 6.43Q27.05 5.26 27.41 5.26ZM36.55 5.26Q37.63 5.26 38.54 6.35Q39.46 7.44 39.46 8.32Q39.46 9.19 38.86 10.10L38.86 10.10Q39.14 10.46 39.14 10.73L39.14 10.73Q39.14 11.40 38.84 13.03Q38.54 14.66 38.48 15.17Q38.42 15.67 38.38 15.97Q38.33 16.27 38.26 16.56L38.26 16.56Q38.16 17.16 37.82 17.16L37.82 17.16Q37.39 17.16 37.12 16.40Q36.84 15.65 36.79 14.45L36.79 14.45Q34.66 17.16 32.83 17.16L32.83 17.16Q31.73 17.16 30.66 16.21Q29.59 15.26 29.59 14.26L29.59 14.26Q29.59 12.82 30.65 10.69Q31.70 8.57 33.38 6.91Q35.06 5.26 36.55 5.26L36.55 5.26ZM37.66 9.50L37.66 9.48Q37.66 7.25 36.77 7.25L36.77 7.25Q35.83 7.25 34.58 8.58Q33.34 9.91 32.47 11.59Q31.61 13.27 31.61 14.26L31.61 14.26Q31.61 14.66 31.94 14.92Q32.28 15.17 32.74 15.17L32.74 15.17Q33.86 15.17 35.28 13.64Q36.70 12.12 37.25 9.94L37.25 9.94Q37.32 9.58 37.66 9.50L37.66 9.50ZM44.11 14.76L44.11 14.76Q44.11 15.22 44.64 15.22L44.64 15.22Q45.55 15.22 46.86 14.70Q48.17 14.18 48.31 14.18L48.31 14.18Q48.74 14.18 48.74 14.64L48.74 14.64Q48.74 15.34 47.32 16.25Q45.89 17.16 44.72 17.16Q43.56 17.16 42.79 16.52Q42.02 15.89 42.02 15.22Q42.02 14.54 42.31 13.50Q42.60 12.46 43.14 10.74Q43.68 9.02 43.99 7.90L43.99 7.90Q42.86 8.16 42.48 8.16Q42.10 8.16 41.72 7.76Q41.35 7.37 41.35 7.01L41.35 7.01Q41.35 6.43 44.47 5.90L44.47 5.90Q44.90 3.91 44.90 2.38L44.90 2.38Q44.90 1.66 45.38 1.66L45.38 1.66Q45.79 1.66 46.39 2.17Q46.99 2.69 46.99 3.34Q46.99 3.98 46.58 5.62L46.58 5.62Q47.95 5.50 48.77 5.50L48.77 5.50Q50.21 5.50 50.21 6.12L50.21 6.12Q50.21 6.48 49.43 6.72Q48.65 6.96 46.15 7.46L46.15 7.46Q45.65 9.36 44.88 11.80Q44.11 14.23 44.11 14.76ZM53.78 1.85Q53.78 1.37 54.17 0.94Q54.55 0.50 54.95 0.50Q55.34 0.50 55.90 1.48Q56.45 2.45 56.45 3.10L56.45 3.10Q56.45 3.34 56.23 3.53Q56.02 3.72 55.78 3.72L55.78 3.72Q55.20 3.72 54.49 3.02Q53.78 2.33 53.78 1.85ZM53.66 5.26L53.66 5.26Q54.12 5.26 54.53 5.81Q54.94 6.36 54.94 6.89Q54.94 7.42 54.24 10.04Q53.54 12.67 52.49 15.94L52.49 15.94Q52.08 17.14 51.46 17.14L51.46 17.14Q51.12 17.14 50.88 16.86Q50.64 16.58 50.64 16.24Q50.64 15.89 50.82 15.13Q51 14.38 51.35 13.12Q51.70 11.86 51.90 11.06Q52.10 10.27 52.32 9.28Q52.54 8.28 52.67 7.67Q52.80 7.06 52.97 6.43L52.97 6.43Q53.30 5.26 53.66 5.26ZM63.67 9.34L63.67 9.34Q63.67 8.52 63.41 7.79Q63.14 7.06 62.64 6.72L62.64 6.72Q60.98 7.18 59.80 9.28Q58.61 11.38 58.61 13.22Q58.61 15.07 59.52 15.53L59.52 15.53Q61.25 15.19 62.46 13.16Q63.67 11.14 63.67 9.34ZM57.37 9.55Q58.20 7.68 59.56 6.47Q60.91 5.26 62.34 5.26Q63.77 5.26 64.73 6.47Q65.69 7.68 65.69 9.42Q65.69 11.16 64.85 12.97Q64.01 14.78 62.53 15.97Q61.06 17.16 59.40 17.16L59.40 17.16Q58.18 17.16 57.36 16.03Q56.54 14.90 56.54 13.16Q56.54 11.42 57.37 9.55ZM69.65 12.98Q71.95 9.07 73.40 7.16Q74.86 5.26 75.78 5.26Q76.70 5.26 77.53 6.24Q78.36 7.22 78.36 8.33L78.36 8.33Q78.36 10.06 77.57 12.55L77.57 12.55Q76.13 17.16 74.98 17.16L74.98 17.16Q74.45 17.16 74.45 16.44L74.45 16.44Q74.45 15.94 74.96 14.39Q75.48 12.84 75.92 11.34Q76.37 9.84 76.37 9.08Q76.37 8.33 76.14 7.97Q75.91 7.61 75.68 7.61Q75.46 7.61 75.22 7.75Q74.98 7.90 74.68 8.23Q74.38 8.57 74.11 8.89Q73.85 9.22 73.45 9.82Q73.06 10.42 72.79 10.84Q72.53 11.26 72.02 12.05Q71.52 12.84 71.26 13.25Q70.99 13.66 70.56 14.35Q70.13 15.05 69.88 15.43Q69.62 15.82 69.31 16.27L69.31 16.27Q68.71 17.16 68.36 17.16Q68.02 17.16 67.56 16.62Q67.10 16.08 67.10 15.67L67.10 15.67Q67.10 15.55 67.27 15.02L67.27 15.02Q67.73 13.63 68.28 11.58Q68.83 9.53 68.88 6.91L68.88 6.91Q68.95 5.16 69.38 5.16L69.38 5.16Q69.91 5.16 70.44 5.71Q70.97 6.26 70.97 6.92Q70.97 7.58 70.57 9.47Q70.18 11.35 69.65 12.98L69.65 12.98ZM102.50 8.81L102.50 8.81Q102.50 9.26 100.39 9.86L100.39 9.86Q100.58 12.36 100.58 14.11L100.58 14.11Q100.58 17.14 99.82 17.14L99.82 17.14Q99.41 17.14 99.17 16.63Q98.93 16.13 98.78 14.88L98.78 14.88Q98.62 12.58 98.42 10.37L98.42 10.37Q97.34 10.66 96.46 10.88Q95.57 11.11 93.77 11.62L93.77 11.62Q91.66 17.14 91.27 17.14Q90.89 17.14 90.44 16.67Q90 16.20 90 15.67L90 15.67Q90 15.43 91.37 12.26L91.37 12.26L91.20 12.26Q90.72 12.26 90.35 11.95Q89.98 11.64 89.98 11.17Q89.98 10.70 92.35 9.94L92.35 9.94Q92.74 9.07 92.98 8.38L92.98 8.38Q93.53 7.01 94.51 4.63Q95.50 2.26 95.76 1.60Q96.02 0.94 96.68 0.47Q97.34 0 97.97 0L97.97 0Q98.71 0 99.30 2.38Q99.89 4.75 100.25 8.26L100.25 8.26Q100.92 8.18 101.42 8.18L101.42 8.18Q102.50 8.18 102.50 8.81ZM94.66 9.31L94.66 9.31Q96.36 8.86 98.26 8.54L98.26 8.54Q97.82 4.44 97.42 2.38L97.42 2.38Q96.34 4.85 94.66 9.31ZM108.18 17.16Q106.78 17.16 105.55 16.07Q104.33 14.98 104.33 13.48Q104.33 11.98 105.34 10.01Q106.34 8.04 107.94 6.65Q109.54 5.26 111.05 5.26L111.05 5.26Q112.03 5.26 112.78 6.14Q113.52 7.03 113.52 7.70L113.52 7.70Q113.52 7.90 113.40 8.03Q113.28 8.16 113.05 8.16Q112.82 8.16 112.25 7.73Q111.67 7.30 111.22 7.30L111.22 7.30Q109.92 7.30 108.19 9.58Q106.46 11.86 106.46 13.56L106.46 13.56Q106.46 14.30 106.93 14.74Q107.40 15.17 108.44 15.17Q109.49 15.17 110.36 14.92Q111.24 14.66 111.72 14.41Q112.20 14.16 112.46 14.16L112.46 14.16Q112.92 14.16 112.92 14.62L112.92 14.62Q112.92 15.31 111.25 16.24Q109.58 17.16 108.18 17.16ZM118.86 17.16Q117.46 17.16 116.23 16.07Q115.01 14.98 115.01 13.48Q115.01 11.98 116.02 10.01Q117.02 8.04 118.62 6.65Q120.22 5.26 121.73 5.26L121.73 5.26Q122.71 5.26 123.46 6.14Q124.20 7.03 124.20 7.70L124.20 7.70Q124.20 7.90 124.08 8.03Q123.96 8.16 123.73 8.16Q123.50 8.16 122.93 7.73Q122.35 7.30 121.90 7.30L121.90 7.30Q120.60 7.30 118.87 9.58Q117.14 11.86 117.14 13.56L117.14 13.56Q117.14 14.30 117.61 14.74Q118.08 15.17 119.12 15.17Q120.17 15.17 121.04 14.92Q121.92 14.66 122.40 14.41Q122.88 14.16 123.14 14.16L123.14 14.16Q123.60 14.16 123.60 14.62L123.60 14.62Q123.60 15.31 121.93 16.24Q120.26 17.16 118.86 17.16ZM135.24 9.23Q135.24 10.51 133.86 11.32Q132.48 12.12 130.74 12.12Q129.00 12.12 127.58 11.74L127.58 11.74Q127.25 12.79 127.25 13.62Q127.25 14.45 127.76 14.90Q128.28 15.36 129.47 15.36Q130.66 15.36 131.92 14.94Q133.18 14.52 133.30 14.52L133.30 14.52Q133.92 14.52 133.92 15L133.92 15Q133.92 15.65 132.46 16.40Q130.99 17.16 129.60 17.16L129.60 17.16Q127.73 17.16 126.55 16.04Q125.38 14.93 125.38 13.22Q125.38 11.52 126.29 9.66Q127.20 7.80 128.64 6.53Q130.08 5.26 131.50 5.26Q132.91 5.26 134.08 6.60Q135.24 7.94 135.24 9.23ZM131.62 7.15L131.62 7.15Q130.73 7.15 129.77 8.08Q128.81 9 128.14 10.37L128.14 10.37Q129.10 10.58 130.32 10.58Q131.54 10.58 132.46 10.19Q133.37 9.79 133.37 9.14Q133.37 8.50 132.78 7.82Q132.19 7.15 131.62 7.15ZM143.33 5.26L143.33 5.26Q144.14 5.26 144.86 6.16Q145.58 7.06 145.58 7.73L145.58 7.73Q145.58 8.14 145.20 8.14L145.20 8.14Q144.94 8.14 144.38 7.72Q143.83 7.30 143.26 7.30Q142.68 7.30 141.44 7.97Q140.21 8.64 140.21 9.38L140.21 9.38Q140.21 9.94 142.42 11.28L142.42 11.28Q143.26 11.81 143.94 12.64Q144.62 13.46 144.62 14.41Q144.62 15.36 143.32 16.26Q142.01 17.16 140.27 17.16Q138.53 17.16 137.20 16.32Q135.86 15.48 135.86 14.74L135.86 14.74Q135.86 14.42 136.02 14.24Q136.18 14.06 136.42 14.06Q136.66 14.06 137.09 14.38L137.09 14.38Q138.38 15.31 139.79 15.31Q141.19 15.31 141.82 14.99Q142.44 14.66 142.44 14.12Q142.44 13.58 141.74 12.97Q141.05 12.36 140.22 11.88Q139.39 11.40 138.70 10.70Q138.00 10.01 138.00 9.29L138.00 9.29Q138.00 8.02 140.00 6.64Q142.01 5.26 143.33 5.26ZM153.55 5.26L153.55 5.26Q154.37 5.26 155.09 6.16Q155.81 7.06 155.81 7.73L155.81 7.73Q155.81 8.14 155.42 8.14L155.42 8.14Q155.16 8.14 154.61 7.72Q154.06 7.30 153.48 7.30Q152.90 7.30 151.67 7.97Q150.43 8.64 150.43 9.38L150.43 9.38Q150.43 9.94 152.64 11.28L152.64 11.28Q153.48 11.81 154.16 12.64Q154.85 13.46 154.85 14.41Q154.85 15.36 153.54 16.26Q152.23 17.16 150.49 17.16Q148.75 17.16 147.42 16.32Q146.09 15.48 146.09 14.74L146.09 14.74Q146.09 14.42 146.24 14.24Q146.40 14.06 146.64 14.06Q146.88 14.06 147.31 14.38L147.31 14.38Q148.61 15.31 150.01 15.31Q151.42 15.31 152.04 14.99Q152.66 14.66 152.66 14.12Q152.66 13.58 151.97 12.97Q151.27 12.36 150.44 11.88Q149.62 11.40 148.92 10.70Q148.22 10.01 148.22 9.29L148.22 9.29Q148.22 8.02 150.23 6.64Q152.23 5.26 153.55 5.26Z" transform="translate(51, 5.897)"></path></svg>